<svg width="173" height="34" viewBox="0 0 173 34" version="1.1" xmlns="http://www.w3.org/2000/svg" xmlns:xlink="http://www.w3.org/1999/xlink">
<title>raicron-horizontal</title>
<desc>Created using Figma</desc>
<g id="Canvas" transform="translate(2607 2)">
<g id="raicron-horizontal">
<g id="raicon-logo">
<g id="Group">
<g id="Vector">
<use xlink:href="#path0_fill" transform="translate(-2607 -2)" fill="#3F51B5"/>
<use xlink:href="#path1_fill" transform="translate(-2607 -2)" fill="#3F51B5"/>
</g>
<g id="Union">
<use xlink:href="#path2_fill" transform="translate(-2600.44 23.84)" fill="#3F51B5"/>
</g>
<g id="Rectangle 3">
<use xlink:href="#path3_fill" transform="translate(-2572.05 1.69152)" fill="#3F51B5"/>
</g>
<g id="Rectangle">
<use xlink:href="#path4_fill" transform="translate(-2599.85 1.69152)" fill="#3F51B5"/>
</g>
<g id="Rectangle 2">
<use xlink:href="#path5_fill" transform="translate(-2599.47 1.69152)" fill="#3F51B5"/>
</g>
</g>
<g id="Union">
<use xlink:href="#path6_fill" transform="translate(-2588.69 7.90859)" fill="#3F51B5"/>
</g>
</g>
<g id="Group">
<g id="Raicron">
<use xlink:href="#path7_fill" transform="translate(-2552.64 2.45247)" fill="#3F51B5"/>
<use xlink:href="#path8_fill" transform="translate(-2552.64 2.45247)" fill="#3F51B5"/>
<use xlink:href="#path9_fill" transform="translate(-2552.64 2.45247)" fill="#3F51B5"/>
<use xlink:href="#path10_fill" transform="translate(-2552.64 2.45247)" fill="#3F51B5"/>
<use xlink:href="#path11_fill" transform="translate(-2552.64 2.45247)" fill="#3F51B5"/>
<use xlink:href="#path12_fill" transform="translate(-2552.64 2.45247)" fill="#3F51B5"/>
<use xlink:href="#path13_fill" transform="translate(-2552.64 2.45247)" fill="#3F51B5"/>
</g>
</g>
</g>
</g>
<defs>
<path id="path0_fill" d="M 7.24259 0C 3.02999 2.00762 -2.08996 9.67444 12.0061 17.68C 23.6717 24.3053 29.3101 23.0229 38.0594 23.0229C 32.9719 24.7067 19.0055 24.8408 9.67293 18.8457C -3.93701 10.1029 -1.70107 2.13714 7.24259 0Z"/>
<path id="path1_fill" d="M 6.46487 22.5371C 10.5478 24.4152 23.5745 27.9509 31.8377 26.0343C 50.2354 21.7671 43.795 13.6971 41.7535 10.5886C 49.5306 16.2229 46.7995 23.965 38.5454 26.7143C 29.8934 29.5962 13.2698 28.7543 6.46487 22.5371Z"/>
<path id="path2_fill" fill-rule="evenodd" d="M 3.59692 0.291428C 2.46265 2.84952 0.155518 8.00457 0 8.16L 31.4001 8.16L 29.0669 0L 27.4143 0.582857L 27.7681 3.10867L 26.166 3.10867L 25.7617 0.582857L 25.0813 0.582857L 25.2329 3.10867L 24.0532 3.10867L 23.7202 0.874285L 23.0398 0.874285L 23.3728 3.10867L 21.873 3.10867L 21.873 1.36L 20.9983 1.36L 20.9983 3.10867L 19.6233 3.10867L 19.8315 1.36L 18.9568 1.36L 18.7068 3.10867L 17.3457 3.10867L 17.5957 1.36L 16.6235 1.36L 16.3735 3.10867L 15.2891 3.10867L 15.5542 1.16571L 14.6792 1.16571L 14.3257 3.10867L 13.0806 3.10867L 13.3184 0.874285L 12.4434 0.874285L 12.0151 3.10867L 10.4343 3.10867L 10.499 1.94286L 10.175 3.10867L 8.53979 3.10867L 8.6521 1.65143L 8.20337 3.10867L 6.54102 3.10867L 6.70776 1.36L 6.04102 3.10867L 3.59692 3.10867L 3.59692 0.291428ZM 3.59692 4.46866L 3.59692 5.44L 5.15234 5.44L 5.52271 4.46866L 3.59692 4.46866ZM 6.41138 4.46866L 6.31885 5.44L 7.48535 5.44L 7.78442 4.46866L 6.41138 4.46866ZM 8.43506 4.46866L 8.36035 5.44L 9.52686 5.44L 9.79688 4.46866L 8.43506 4.46866ZM 10.3586 4.46866L 10.3047 5.44L 11.5684 5.44L 11.7544 4.46866L 10.3586 4.46866ZM 12.9358 4.46866L 12.8323 5.44L 13.9016 5.44L 14.0784 4.46866L 12.9358 4.46866ZM 15.1035 4.46866L 14.9709 5.44L 16.0403 5.44L 16.1792 4.46866L 15.1035 4.46866ZM 17.1514 4.46866L 17.0125 5.44L 18.3735 5.44L 18.5125 4.46866L 17.1514 4.46866ZM 19.4612 4.46866L 19.3455 5.44L 20.9983 5.44L 20.9983 4.46866L 19.4612 4.46866ZM 21.873 4.46866L 21.873 5.44L 23.7202 5.44L 23.5754 4.46866L 21.873 4.46866ZM 24.2559 4.46866L 24.4006 5.44L 25.3728 5.44L 25.3145 4.46866L 24.2559 4.46866ZM 26.3838 4.46866L 26.5393 5.44L 28.0947 5.44L 27.9587 4.46866L 26.3838 4.46866Z"/>
<path id="path3_fill" d="M 0 0L 2.9164 0L 2.9164 17.2914L 0 17.2914L 0 0Z"/>
<path id="path4_fill" d="M 0 0L 2.91642 0L 2.91642 13.0171L 0 13.0171L 0 0Z"/>
<path id="path5_fill" d="M 0 0L 29.9419 0L 29.9419 2.91429L 0 2.91429L 0 0Z"/>
<path id="path6_fill" fill-rule="evenodd" d="M 4.28564 8.54857C 6.65259 8.54857 8.57153 6.63491 8.57153 4.27428C 8.57153 1.91366 6.65259 0 4.28564 0C 1.9187 0 0 1.91366 0 4.27428C 0 6.63491 1.9187 8.54857 4.28564 8.54857ZM 4.28564 7.5771C 6.1145 7.5771 7.59717 6.09836 7.59717 4.27425C 7.59717 2.45013 6.1145 0.971391 4.28564 0.971391C 2.45654 0.971391 0.973877 2.45013 0.973877 4.27425C 0.973877 6.09836 2.45654 7.5771 4.28564 7.5771ZM 3.70142 1.55422L 4.87036 1.55422L 4.87036 3.30279L 3.70142 3.30279L 3.70142 1.55422ZM 1.948 4.27424C 1.948 3.25915 2.59839 2.39559 3.50635 2.07551L 3.50635 3.15809C 3.15332 3.40386 2.92212 3.81211 2.92212 4.27418C 2.92212 5.02529 3.53271 5.63418 4.28564 5.63418C 5.03882 5.63418 5.64941 5.02529 5.64941 4.27418C 5.64941 3.81192 5.41821 3.40353 5.0647 3.15779L 5.0647 2.07542C 5.97266 2.39543 6.62329 3.25906 6.62329 4.27424C 6.62329 5.56185 5.57666 6.60566 4.28564 6.60566C 2.99463 6.60566 1.948 5.56185 1.948 4.27424Z"/>
<path id="path7_fill" d="M 0 24.7923L 0 0.234047L 9.07769 0.234047C 10.3148 0.234047 11.3847 0.289773 12.2875 0.401224C 13.2014 0.512675 14.0651 0.718859 14.8787 1.01978C 15.7035 1.30955 16.3666 1.7052 16.8681 2.20673C 17.3808 2.70826 17.782 3.36582 18.0718 4.17941C 18.3727 4.98186 18.5232 5.93477 18.5232 7.03813C 18.5232 10.2925 17.0464 12.4324 14.093 13.4577C 14.6948 14.1376 15.4415 15.397 16.3332 17.2359L 19.9776 24.7923L 15.0292 24.7923L 12.1705 18.3894C 11.0894 16.0935 10.4207 14.7338 10.1643 14.3103C 9.97487 14.2992 9.34517 14.2936 8.27524 14.2936L 4.48033 14.2602L 4.48033 24.7923L 0 24.7923ZM 9.47891 11.0169C 11.2175 11.0169 12.4658 10.7104 13.2237 10.0975C 13.9815 9.47334 14.3605 8.47585 14.3605 7.105C 14.3605 5.90133 13.976 5.0153 13.2069 4.4469C 12.4379 3.8785 11.2621 3.5943 9.67952 3.5943L 4.48033 3.5943L 4.48033 11.0002C 4.64751 11.0002 5.47782 11.0058 6.97126 11.0169C 8.46471 11.0169 9.30059 11.0169 9.47891 11.0169Z"/>
<path id="path8_fill" d="M 27.8516 25.1434C 26.1464 25.1434 24.7644 24.6753 23.7056 23.7391C 22.658 22.7917 22.1342 21.432 22.1342 19.66C 22.1342 17.7542 22.7583 16.3443 24.0066 15.4304C 25.2548 14.5054 27.1383 13.9202 29.6571 13.675C 30.0026 13.6305 30.376 13.5859 30.7772 13.5413C 31.1784 13.4967 31.6298 13.4521 32.1313 13.4076C 32.6329 13.363 33.0285 13.324 33.3183 13.2905L 33.3183 12.3209C 33.3183 11.2064 33.062 10.3984 32.5493 9.89685C 32.0366 9.38418 31.2564 9.12784 30.2088 9.12784C 28.7154 9.12784 26.8708 9.54578 24.6753 10.3817C 24.6641 10.3482 24.4802 9.84113 24.1236 8.86036C 23.7669 7.87959 23.583 7.37806 23.5719 7.35577C 25.734 6.43073 28.0745 5.9682 30.5933 5.9682C 33.0675 5.9682 34.8675 6.50874 35.9931 7.58982C 37.1188 8.65975 37.6816 10.3984 37.6816 12.8057L 37.6816 24.7923L 34.4384 24.7923C 34.4272 24.7477 34.3046 24.3743 34.0706 23.6722C 33.8365 22.9701 33.7195 22.5967 33.7195 22.5521C 32.8056 23.4437 31.9084 24.1013 31.028 24.5248C 30.1587 24.9372 29.0999 25.1434 27.8516 25.1434ZM 29.0386 22.0339C 30.0528 22.0339 30.9332 21.7943 31.68 21.315C 32.4378 20.8246 32.9784 20.2339 33.3016 19.5429L 33.3016 15.9988C 33.2681 15.9988 32.9728 16.0211 32.4155 16.0657C 31.8694 16.1102 31.5741 16.1325 31.5295 16.1325C 29.7574 16.2886 28.459 16.6229 27.6343 17.1356C 26.8096 17.6483 26.3972 18.473 26.3972 19.6098C 26.3972 20.39 26.6257 20.9918 27.0826 21.4153C 27.5396 21.8277 28.1915 22.0339 29.0386 22.0339Z"/>
<path id="path9_fill" d="M 42.1954 24.7923L 42.1954 6.41958L 46.5754 6.41958L 46.5754 24.7923L 42.1954 24.7923ZM 42.1954 3.74476L 42.1954 0L 46.5921 0L 46.5921 3.74476L 42.1954 3.74476Z"/>
<path id="path10_fill" d="M 59.1972 25.1434C 56.3887 25.1434 54.1986 24.3075 52.6272 22.6357C 51.0669 20.9639 50.2867 18.5733 50.2867 15.4638C 50.2867 12.4547 51.1059 10.1198 52.7442 8.45913C 54.3937 6.79851 56.5614 5.9682 59.2474 5.9682C 61.3984 5.9682 63.215 6.43073 64.6973 7.35577L 63.6608 10.482C 62.1451 9.69067 60.7353 9.29502 59.4313 9.29502C 57.949 9.29502 56.7787 9.82441 55.9206 10.8832C 55.0735 11.942 54.65 13.4856 54.65 15.514C 54.65 17.5647 55.068 19.125 55.9038 20.1949C 56.7509 21.2649 57.9434 21.7998 59.4814 21.7998C 61.0863 21.7998 62.6299 21.3262 64.1122 20.3788L 64.5302 23.7056C 63.7611 24.2183 62.9643 24.5861 62.1395 24.809C 61.3148 25.0319 60.334 25.1434 59.1972 25.1434Z"/>
<path id="path11_fill" d="M 68.0241 24.7923L 68.0241 6.41958L 71.702 6.41958L 72.2704 9.22815C 73.4741 7.30004 75.2183 6.33599 77.5031 6.33599C 77.9823 6.33599 78.3724 6.35828 78.6733 6.40286L 78.6064 10.064C 78.1606 9.99716 77.6981 9.96372 77.2189 9.96372C 75.6028 9.96372 74.3936 10.3928 73.5911 11.251C 72.7998 12.1092 72.4042 13.3017 72.4042 14.8286L 72.4042 24.7923L 68.0241 24.7923Z"/>
<path id="path12_fill" d="M 89.1887 21.8165C 90.671 21.8165 91.7855 21.276 92.5322 20.1949C 93.279 19.1139 93.6523 17.5647 93.6523 15.5474C 93.6523 13.5079 93.279 11.9531 92.5322 10.8832C 91.7855 9.81326 90.6599 9.2783 89.1553 9.2783C 87.673 9.2783 86.5529 9.81884 85.795 10.8999C 85.0483 11.9698 84.6749 13.5246 84.6749 15.5641C 84.6749 17.5703 85.0539 19.1139 85.8117 20.1949C 86.5696 21.276 87.6953 21.8165 89.1887 21.8165ZM 89.0717 25.1434C 86.3523 25.1434 84.2124 24.2629 82.6521 22.502C 81.0918 20.741 80.3116 18.4229 80.3116 15.5474C 80.3116 12.5828 81.0918 10.2479 82.6521 8.54272C 84.2124 6.82638 86.4136 5.9682 89.2556 5.9682C 91.9973 5.9682 94.1427 6.84309 95.6919 8.59288C 97.2522 10.3315 98.0323 12.6497 98.0323 15.5474C 98.0323 18.4786 97.2466 20.8135 95.6752 22.5521C 94.1037 24.2796 91.9025 25.1434 89.0717 25.1434Z"/>
<path id="path13_fill" d="M 101.61 24.7923L 101.61 6.41958L 105.137 6.41958L 105.622 8.74333C 107.495 6.89325 109.573 5.9682 111.858 5.9682C 113.998 5.9682 115.597 6.58676 116.656 7.82386C 117.726 9.04982 118.261 10.833 118.261 13.1735L 118.261 24.7923L 113.864 24.7923L 113.864 13.7085C 113.853 12.2262 113.613 11.1172 113.145 10.3817C 112.677 9.64609 111.836 9.2783 110.621 9.2783C 109.673 9.2783 108.804 9.52349 108.013 10.0139C 107.233 10.4931 106.664 11.1005 106.308 11.8361C 106.096 12.7054 105.99 14.0428 105.99 15.8483L 105.99 24.7923L 101.61 24.7923Z"/>
</defs>
</svg>
