<svg width="228" height="25" viewBox="0 0 228 25" version="1.1" xmlns="http://www.w3.org/2000/svg" xmlns:xlink="http://www.w3.org/1999/xlink">
<title>logo-atacadoribeirao</title>
<desc>Created using Figma</desc>
<g id="Canvas" transform="translate(574 507)">
<g id="logo-atacadoribeirao">
<g id="Vector">
<use xlink:href="#path0_fill" transform="translate(-573.102 -506.93)" fill="#F44336"/>
<use xlink:href="#path1_fill" transform="translate(-573.102 -506.93)" fill="#F44336"/>
<use xlink:href="#path2_fill" transform="translate(-573.102 -506.93)" fill="#F44336"/>
<use xlink:href="#path3_fill" transform="translate(-573.102 -506.93)" fill="#F44336"/>
<use xlink:href="#path4_fill" transform="translate(-573.102 -506.93)" fill="#F44336"/>
<use xlink:href="#path5_fill" transform="translate(-573.102 -506.93)" fill="#F44336"/>
<use xlink:href="#path6_fill" transform="translate(-573.102 -506.93)" fill="#F44336"/>
<use xlink:href="#path7_fill" transform="translate(-573.102 -506.93)" fill="#F44336"/>
<use xlink:href="#path8_fill" transform="translate(-573.102 -506.93)" fill="#F44336"/>
<use xlink:href="#path9_fill" transform="translate(-573.102 -506.93)" fill="#F44336"/>
<use xlink:href="#path10_fill" transform="translate(-573.102 -506.93)" fill="#F44336"/>
<use xlink:href="#path11_fill" transform="translate(-573.102 -506.93)" fill="#F44336"/>
<use xlink:href="#path12_fill" transform="translate(-573.102 -506.93)" fill="#F44336"/>
<use xlink:href="#path13_fill" transform="translate(-573.102 -506.93)" fill="#F44336"/>
<use xlink:href="#path14_fill" transform="translate(-573.102 -506.93)" fill="#F44336"/>
</g>
</g>
</g>
<defs>
<path id="path0_fill" d="M 127.661 6.57069C 128.123 6.57069 128.545 6.60154 128.925 6.66324L 128.833 9.03856C 128.36 8.9563 127.949 8.91517 127.599 8.91517C 126.159 8.91517 124.987 9.41902 124.082 10.4267C 123.188 11.4242 122.74 12.6632 122.74 14.144L 122.74 23.6452L 120.165 23.6452C 120.154 13.2596 120.149 7.61954 120.149 6.72494L 122.293 6.72494L 122.54 9.7635C 123.126 8.8072 123.871 8.03599 124.776 7.44987C 125.681 6.86375 126.643 6.57069 127.661 6.57069Z"/>
<path id="path1_fill" d="M 134.617 6.72494L 134.617 23.6452L 132.026 23.6452L 132.026 6.72494L 134.617 6.72494ZM 134.617 0.570694L 134.617 3.62468L 132.026 3.62468L 132.026 0.570694L 134.617 0.570694Z"/>
<path id="path2_fill" d="M 147.172 8.51414C 145.537 8.51414 144.283 9.07969 143.409 10.2108C 142.545 11.3316 142.113 12.982 142.113 15.162C 142.113 19.6247 143.794 21.856 147.157 21.856C 147.99 21.856 148.72 21.6864 149.347 21.347C 149.985 20.9974 150.483 20.5141 150.843 19.8972C 151.213 19.2699 151.486 18.5656 151.661 17.7841C 151.846 17.0026 151.938 16.1337 151.938 15.1774C 151.938 13.8817 151.784 12.7506 151.476 11.7841C 151.177 10.8175 150.663 10.0308 149.933 9.42416C 149.203 8.81748 148.283 8.51414 147.172 8.51414ZM 147.434 6.37018C 148.936 6.37018 150.231 6.75064 151.321 7.51157C 152.411 8.27249 153.229 9.30591 153.774 10.6118C 154.319 11.9177 154.591 13.4139 154.591 15.1003C 154.591 16.8483 154.319 18.3856 153.774 19.7121C 153.239 21.0386 152.422 22.0874 151.321 22.8586C 150.231 23.6195 148.925 24 147.404 24C 146.283 24 145.26 23.7584 144.334 23.2751C 143.409 22.7918 142.638 22.1337 142.021 21.3008L 141.758 23.6452L 139.553 23.6452L 139.553 0.154242L 142.129 0L 142.129 5.59897C 142.129 6.97686 142.108 8.15938 142.067 9.14653C 142.663 8.29306 143.434 7.61954 144.38 7.12596C 145.337 6.62211 146.355 6.37018 147.434 6.37018Z"/>
<path id="path3_fill" d="M 167.979 9.85604C 167.229 8.95116 166.195 8.49871 164.879 8.49871C 163.563 8.49871 162.488 8.96658 161.656 9.90231C 160.823 10.8278 160.334 12.0977 160.19 13.7121L 169.121 13.7121C 169.121 12.036 168.74 10.7506 167.979 9.85604ZM 165.388 24C 162.931 24 160.992 23.2185 159.573 21.6555C 158.165 20.0925 157.46 17.9537 157.46 15.2391C 157.46 12.617 158.144 10.4936 159.512 8.86889C 160.879 7.23393 162.679 6.40103 164.91 6.37018C 167.008 6.37018 168.668 7.08997 169.892 8.52956C 171.126 9.95887 171.743 11.8715 171.743 14.2674C 171.743 14.3907 171.738 14.617 171.728 14.946C 171.728 15.2751 171.728 15.5116 171.728 15.6555L 160.113 15.6555C 160.144 17.5784 160.638 19.0797 161.594 20.1594C 162.56 21.2288 163.856 21.7635 165.481 21.7635C 167.27 21.7635 169.064 21.2905 170.864 20.3445L 171.265 22.4267C 169.548 23.4756 167.589 24 165.388 24Z"/>
<path id="path4_fill" d="M 178.36 6.72494L 178.36 23.6452L 175.769 23.6452L 175.769 6.72494L 178.36 6.72494ZM 178.36 0.570694L 178.36 3.62468L 175.769 3.62468L 175.769 0.570694L 178.36 0.570694Z"/>
<path id="path5_fill" d="M 190.807 6.57069C 191.27 6.57069 191.692 6.60154 192.072 6.66324L 191.979 9.03856C 191.506 8.9563 191.095 8.91517 190.746 8.91517C 189.306 8.91517 188.134 9.41902 187.229 10.4267C 186.334 11.4242 185.887 12.6632 185.887 14.144L 185.887 23.6452L 183.311 23.6452C 183.301 13.2596 183.296 7.61954 183.296 6.72494L 185.44 6.72494L 185.686 9.7635C 186.272 8.8072 187.018 8.03599 187.923 7.44987C 188.828 6.86375 189.789 6.57069 190.807 6.57069Z"/>
<path id="path6_fill" d="M 195.943 4.36504L 194.679 3.51671C 195.039 2.509 195.46 1.79435 195.943 1.37275C 196.427 0.951156 196.977 0.74036 197.594 0.74036C 198.057 0.74036 198.602 0.863753 199.229 1.11054C 199.866 1.35733 200.488 1.60411 201.095 1.8509C 201.702 2.09769 202.216 2.22108 202.638 2.22108C 203.491 2.22108 204.134 1.71722 204.566 0.709512L 205.892 1.26478C 205.532 2.45758 205.09 3.29563 204.566 3.77892C 204.051 4.25193 203.46 4.48843 202.792 4.48843C 202.319 4.48843 201.763 4.37018 201.126 4.13368C 200.488 3.89717 199.861 3.66067 199.244 3.42416C 198.638 3.17738 198.134 3.05398 197.733 3.05398C 196.941 3.05398 196.344 3.491 195.943 4.36504ZM 199.306 21.9177C 200.53 21.9177 201.604 21.5835 202.53 20.9152C 203.465 20.2365 204.067 19.3265 204.334 18.1851L 204.334 15.3316C 204.283 15.3316 203.969 15.3573 203.393 15.4087C 202.828 15.4602 202.458 15.491 202.283 15.5013C 200.051 15.6967 198.494 16.0617 197.609 16.5964C 196.735 17.1311 196.298 17.9897 196.298 19.1722C 196.298 20.0771 196.566 20.7609 197.1 21.2237C 197.635 21.6864 198.37 21.9177 199.306 21.9177ZM 204.905 23.6452C 204.751 22.9871 204.602 22.2776 204.458 21.5167C 203.522 22.4524 202.643 23.1003 201.82 23.4602C 200.997 23.8201 200.031 24 198.92 24C 197.337 24 196.062 23.5887 195.095 22.7661C 194.139 21.9332 193.661 20.7404 193.661 19.1877C 193.661 17.4602 194.314 16.1799 195.62 15.347C 196.936 14.5141 198.828 13.9949 201.296 13.7892C 201.635 13.7584 202.144 13.7172 202.823 13.6658C 203.512 13.6041 204.026 13.5578 204.365 13.527L 204.365 12.0308C 204.365 10.838 204.087 9.95373 203.532 9.37789C 202.977 8.80206 202.103 8.51414 200.91 8.51414C 199.244 8.51414 197.563 8.92545 195.866 9.74807C 195.815 9.62468 195.681 9.26992 195.465 8.6838C 195.249 8.0874 195.136 7.77892 195.126 7.75835C 195.877 7.33676 196.766 7.00257 197.794 6.75578C 198.833 6.49872 199.887 6.37018 200.956 6.37018C 203.064 6.37018 204.581 6.8329 205.506 7.75835C 206.442 8.67352 206.91 10.2365 206.91 12.4473L 206.91 23.6452L 204.905 23.6452Z"/>
<path id="path7_fill" d="M 213.234 15.2237C 213.234 17.2288 213.676 18.838 214.56 20.0514C 215.455 21.2545 216.756 21.856 218.463 21.856C 220.149 21.856 221.419 21.2545 222.272 20.0514C 223.136 18.8483 223.568 17.2288 223.568 15.1928C 223.568 13.126 223.141 11.5013 222.288 10.3188C 221.445 9.12596 220.154 8.52956 218.416 8.52956C 216.73 8.52956 215.445 9.13625 214.56 10.3496C 213.676 11.563 213.234 13.1877 213.234 15.2237ZM 226.237 15.1774C 226.237 17.7995 225.537 19.928 224.139 21.563C 222.74 23.1877 220.807 24 218.339 24C 215.964 24 214.072 23.1774 212.663 21.5321C 211.265 19.8869 210.566 17.7738 210.566 15.1928C 210.566 12.5604 211.27 10.4319 212.679 8.8072C 214.087 7.18252 216.021 6.37018 218.478 6.37018C 220.895 6.37018 222.792 7.18766 224.17 8.82262C 225.548 10.4473 226.237 12.5656 226.237 15.1774Z"/>
<path id="path8_fill" d="M 5.27506 23.9692C 3.7018 23.9692 2.42674 23.5373 1.44987 22.6735C 0.48329 21.7995 0 20.545 0 18.91C 0 17.1517 0.575835 15.8509 1.72751 15.0077C 2.87918 14.1542 4.61697 13.6144 6.94087 13.3882C 7.25964 13.347 7.60411 13.3059 7.97429 13.2648C 8.34447 13.2237 8.76093 13.1825 9.22365 13.1414C 9.68638 13.1003 10.0514 13.0643 10.3188 13.0334L 10.3188 12.1388C 10.3188 11.1105 10.0823 10.365 9.60925 9.90231C 9.13625 9.42931 8.41645 9.1928 7.44987 9.1928C 6.07198 9.1928 4.37018 9.57841 2.34447 10.3496C 2.33419 10.3188 2.16452 9.8509 1.83548 8.94602C 1.50643 8.04113 1.33676 7.57841 1.32648 7.55784C 3.32134 6.70437 5.48072 6.27763 7.80463 6.27763C 10.0874 6.27763 11.7481 6.77635 12.7866 7.77378C 13.8252 8.76093 14.3445 10.365 14.3445 12.5861L 14.3445 23.6452L 11.3522 23.6452C 11.3419 23.6041 11.2288 23.2596 11.0129 22.6118C 10.7969 21.964 10.6889 21.6195 10.6889 21.5784C 9.84576 22.401 9.018 23.0077 8.20566 23.3985C 7.4036 23.7789 6.42674 23.9692 5.27506 23.9692ZM 6.37018 21.1003C 7.30591 21.1003 8.11825 20.8792 8.8072 20.437C 9.50643 19.9846 10.0051 19.4396 10.3033 18.8021L 10.3033 15.5321C 10.2725 15.5321 10 15.5527 9.48586 15.5938C 8.982 15.635 8.70951 15.6555 8.66838 15.6555C 7.03342 15.7995 5.83548 16.108 5.07455 16.581C 4.31362 17.054 3.93316 17.8149 3.93316 18.8638C 3.93316 19.5835 4.14396 20.1388 4.56555 20.5296C 4.98715 20.91 5.58869 21.1003 6.37018 21.1003Z"/>
<path id="path9_fill" d="M 25.1877 23.8766C 24.036 23.8766 23.0746 23.7429 22.3033 23.4756C 21.5424 23.1979 20.946 22.7661 20.5141 22.1799C 20.0823 21.5938 19.7738 20.9049 19.5887 20.1131C 19.4139 19.3111 19.3265 18.3239 19.3265 17.1517L 19.3265 9.14653L 16.5501 9.14653L 16.7044 6.9563L 19.6041 6.69409L 20.8997 2.09769L 23.3676 2.08226L 23.3676 6.69409L 27.5784 6.69409L 27.5784 9.14653L 23.3676 9.14653L 23.3676 17.2288C 23.3676 18.5141 23.5527 19.4293 23.9229 19.9743C 24.2931 20.5193 24.9769 20.7918 25.9743 20.7918C 26.5604 20.7918 27.1877 20.7404 27.856 20.6375L 27.964 23.5373C 27.9434 23.5373 27.8149 23.563 27.5784 23.6144C 27.3522 23.6555 27.1311 23.6915 26.9152 23.7224C 26.7095 23.7635 26.4422 23.7995 26.1131 23.8303C 25.7841 23.8612 25.4756 23.8766 25.1877 23.8766Z"/>
<path id="path10_fill" d="M 35.2596 23.9692C 33.6864 23.9692 32.4113 23.5373 31.4344 22.6735C 30.4679 21.7995 29.9846 20.545 29.9846 18.91C 29.9846 17.1517 30.5604 15.8509 31.7121 15.0077C 32.8638 14.1542 34.6015 13.6144 36.9254 13.3882C 37.2442 13.347 37.5887 13.3059 37.9589 13.2648C 38.329 13.2237 38.7455 13.1825 39.2082 13.1414C 39.671 13.1003 40.036 13.0643 40.3033 13.0334L 40.3033 12.1388C 40.3033 11.1105 40.0668 10.365 39.5938 9.90231C 39.1208 9.42931 38.401 9.1928 37.4344 9.1928C 36.0566 9.1928 34.3548 9.57841 32.329 10.3496C 32.3188 10.3188 32.1491 9.8509 31.8201 8.94602C 31.491 8.04113 31.3213 7.57841 31.3111 7.55784C 33.3059 6.70437 35.4653 6.27763 37.7892 6.27763C 40.072 6.27763 41.7326 6.77635 42.7712 7.77378C 43.8098 8.76093 44.329 10.365 44.329 12.5861L 44.329 23.6452L 41.3368 23.6452C 41.3265 23.6041 41.2134 23.2596 40.9974 22.6118C 40.7815 21.964 40.6735 21.6195 40.6735 21.5784C 39.8303 22.401 39.0026 23.0077 38.1902 23.3985C 37.3882 23.7789 36.4113 23.9692 35.2596 23.9692ZM 36.3548 21.1003C 37.2905 21.1003 38.1028 20.8792 38.7918 20.437C 39.491 19.9846 39.9897 19.4396 40.2879 18.8021L 40.2879 15.5321C 40.2571 15.5321 39.9846 15.5527 39.4704 15.5938C 38.9666 15.635 38.6941 15.6555 38.653 15.6555C 37.018 15.7995 35.8201 16.108 35.0591 16.581C 34.2982 17.054 33.9177 17.8149 33.9177 18.8638C 33.9177 19.5835 34.1285 20.1388 34.5501 20.5296C 34.9717 20.91 35.5733 21.1003 36.3548 21.1003Z"/>
<path id="path11_fill" d="M 55.8201 23.9692C 53.2288 23.9692 51.2082 23.1979 49.7584 21.6555C 48.3188 20.1131 47.599 17.9075 47.599 15.0386C 47.599 12.2622 48.3548 10.108 49.8663 8.57584C 51.3882 7.0437 53.3882 6.27763 55.8663 6.27763C 57.8509 6.27763 59.527 6.70437 60.8946 7.55784L 59.9383 10.4422C 58.5398 9.71208 57.2391 9.34704 56.036 9.34704C 54.6684 9.34704 53.5887 9.83548 52.7969 10.8123C 52.0154 11.7892 51.6247 13.2134 51.6247 15.0848C 51.6247 16.9769 52.0103 18.4165 52.7815 19.4036C 53.563 20.3907 54.6632 20.8843 56.0823 20.8843C 57.563 20.8843 58.9871 20.4473 60.3548 19.5733L 60.7404 22.6427C 60.0308 23.1157 59.2956 23.455 58.5347 23.6607C 57.7738 23.8663 56.8689 23.9692 55.8201 23.9692Z"/>
<path id="path12_fill" d="M 68.4216 23.9692C 66.8483 23.9692 65.5733 23.5373 64.5964 22.6735C 63.6298 21.7995 63.1465 20.545 63.1465 18.91C 63.1465 17.1517 63.7224 15.8509 64.874 15.0077C 66.0257 14.1542 67.7635 13.6144 70.0874 13.3882C 70.4062 13.347 70.7506 13.3059 71.1208 13.2648C 71.491 13.2237 71.9075 13.1825 72.3702 13.1414C 72.8329 13.1003 73.1979 13.0643 73.4653 13.0334L 73.4653 12.1388C 73.4653 11.1105 73.2288 10.365 72.7558 9.90231C 72.2828 9.42931 71.563 9.1928 70.5964 9.1928C 69.2185 9.1928 67.5167 9.57841 65.491 10.3496C 65.4807 10.3188 65.3111 9.8509 64.982 8.94602C 64.653 8.04113 64.4833 7.57841 64.473 7.55784C 66.4679 6.70437 68.6272 6.27763 70.9512 6.27763C 73.2339 6.27763 74.8946 6.77635 75.9332 7.77378C 76.9717 8.76093 77.491 10.365 77.491 12.5861L 77.491 23.6452L 74.4987 23.6452C 74.4884 23.6041 74.3753 23.2596 74.1594 22.6118C 73.9434 21.964 73.8355 21.6195 73.8355 21.5784C 72.9923 22.401 72.1645 23.0077 71.3522 23.3985C 70.5501 23.7789 69.5733 23.9692 68.4216 23.9692ZM 69.5167 21.1003C 70.4524 21.1003 71.2648 20.8792 71.9537 20.437C 72.653 19.9846 73.1517 19.4396 73.4499 18.8021L 73.4499 15.5321C 73.419 15.5321 73.1465 15.5527 72.6324 15.5938C 72.1285 15.635 71.856 15.6555 71.8149 15.6555C 70.1799 15.7995 68.982 16.108 68.2211 16.581C 67.4602 17.054 67.0797 17.8149 67.0797 18.8638C 67.0797 19.5835 67.2905 20.1388 67.7121 20.5296C 68.1337 20.91 68.7352 21.1003 69.5167 21.1003Z"/>
<path id="path13_fill" d="M 87.8715 23.9692C 85.6607 23.9692 83.9229 23.1568 82.6581 21.5321C 81.3933 19.9075 80.7609 17.7378 80.7609 15.0231C 80.7609 12.3907 81.3882 10.2776 82.6427 8.6838C 83.9075 7.07969 85.6452 6.27763 87.856 6.27763C 90.2622 6.27763 91.964 7.13111 92.9614 8.83805C 92.8586 7.83033 92.8072 6.85861 92.8072 5.92288L 92.8072 0.447301L 96.8483 0.18509L 96.8483 23.6452L 93.347 23.6452L 92.8997 21.3316C 92.7249 21.6093 92.5604 21.8509 92.4062 22.0566C 92.2622 22.2519 92.0463 22.4833 91.7584 22.7506C 91.4704 23.0077 91.1568 23.2185 90.8175 23.383C 90.4884 23.5373 90.0668 23.671 89.5527 23.7841C 89.0488 23.9075 88.4884 23.9692 87.8715 23.9692ZM 88.8278 20.8997C 91.5424 20.8997 92.9203 19.054 92.9614 15.3625C 92.9614 13.2751 92.6118 11.7532 91.9126 10.7969C 91.2134 9.84062 90.1697 9.36247 88.7815 9.36247C 87.5681 9.36247 86.5964 9.8509 85.8663 10.8278C 85.1465 11.7943 84.7866 13.2237 84.7866 15.1157C 84.7866 16.9974 85.1465 18.4319 85.8663 19.419C 86.5964 20.4062 87.5835 20.8997 88.8278 20.8997Z"/>
<path id="path14_fill" d="M 108.355 20.8997C 109.722 20.8997 110.751 20.401 111.44 19.4036C 112.129 18.4062 112.473 16.9769 112.473 15.1157C 112.473 13.2339 112.129 11.7995 111.44 10.8123C 110.751 9.82519 109.712 9.33162 108.324 9.33162C 106.956 9.33162 105.923 9.83033 105.224 10.8278C 104.535 11.8149 104.19 13.2494 104.19 15.1311C 104.19 16.982 104.54 18.4062 105.239 19.4036C 105.938 20.401 106.977 20.8997 108.355 20.8997ZM 108.247 23.9692C 105.738 23.9692 103.763 23.1568 102.324 21.5321C 100.884 19.9075 100.165 17.7686 100.165 15.1157C 100.165 12.3805 100.884 10.2262 102.324 8.65296C 103.763 7.06941 105.794 6.27763 108.416 6.27763C 110.946 6.27763 112.925 7.08483 114.355 8.69923C 115.794 10.3033 116.514 12.4422 116.514 15.1157C 116.514 17.8201 115.789 19.9743 114.339 21.5784C 112.889 23.1722 110.859 23.9692 108.247 23.9692Z"/>
</defs>
</svg>
