<svg width="224" height="24" viewBox="0 0 224 24" version="1.1" xmlns="http://www.w3.org/2000/svg" xmlns:xlink="http://www.w3.org/1999/xlink">
<title>logo-atacadoribeirao-white</title>
<desc>Created using Figma</desc>
<g id="Canvas" transform="translate(571 425)">
<g id="logo-atacadoribeirao-white">
<g id="Group 3.1">
<g id="atacado">
<use xlink:href="#path0_fill" transform="translate(-571 -424.83)" fill="#9C1616"/>
<use xlink:href="#path1_fill" transform="translate(-571 -424.83)" fill="#9C1616"/>
<use xlink:href="#path2_fill" transform="translate(-571 -424.83)" fill="#9C1616"/>
<use xlink:href="#path3_fill" transform="translate(-571 -424.83)" fill="#9C1616"/>
<use xlink:href="#path4_fill" transform="translate(-571 -424.83)" fill="#9C1616"/>
<use xlink:href="#path5_fill" transform="translate(-571 -424.83)" fill="#9C1616"/>
<use xlink:href="#path6_fill" transform="translate(-571 -424.83)" fill="#9C1616"/>
</g>
<g id="ribeir&#195;&#163;o">
<use xlink:href="#path7_fill" transform="translate(-449.55 -425)" fill="#FFFFFF"/>
<use xlink:href="#path8_fill" transform="translate(-449.55 -425)" fill="#FFFFFF"/>
<use xlink:href="#path9_fill" transform="translate(-449.55 -425)" fill="#FFFFFF"/>
<use xlink:href="#path10_fill" transform="translate(-449.55 -425)" fill="#FFFFFF"/>
<use xlink:href="#path11_fill" transform="translate(-449.55 -425)" fill="#FFFFFF"/>
<use xlink:href="#path12_fill" transform="translate(-449.55 -425)" fill="#FFFFFF"/>
<use xlink:href="#path13_fill" transform="translate(-449.55 -425)" fill="#FFFFFF"/>
<use xlink:href="#path14_fill" transform="translate(-449.55 -425)" fill="#FFFFFF"/>
</g>
</g>
</g>
</g>
<defs>
<path id="path0_fill" d="M 5.27506 23.7841C 3.7018 23.7841 2.42674 23.3522 1.44987 22.4884C 0.48329 21.6144 0 20.3599 0 18.7249C 0 16.9666 0.575835 15.6658 1.72751 14.8226C 2.87918 13.9692 4.61697 13.4293 6.94087 13.2031C 7.25964 13.162 7.60411 13.1208 7.97429 13.0797C 8.34447 13.0386 8.76093 12.9974 9.22365 12.9563C 9.68638 12.9152 10.0514 12.8792 10.3188 12.8483L 10.3188 11.9537C 10.3188 10.9254 10.0823 10.1799 9.60925 9.71722C 9.13625 9.24422 8.41645 9.00771 7.44987 9.00771C 6.07198 9.00771 4.37018 9.39332 2.34447 10.1645C 2.33419 10.1337 2.16452 9.66581 1.83548 8.76093C 1.50643 7.85604 1.33676 7.39332 1.32648 7.37275C 3.32134 6.51928 5.48072 6.09254 7.80463 6.09254C 10.0874 6.09254 11.7481 6.59126 12.7866 7.58869C 13.8252 8.57584 14.3445 10.1799 14.3445 12.401L 14.3445 23.4602L 11.3522 23.4602C 11.3419 23.419 11.2288 23.0746 11.0129 22.4267C 10.7969 21.7789 10.6889 21.4344 10.6889 21.3933C 9.84576 22.2159 9.01799 22.8226 8.20566 23.2134C 7.4036 23.5938 6.42674 23.7841 5.27506 23.7841ZM 6.37018 20.9152C 7.30591 20.9152 8.11825 20.6941 8.8072 20.2519C 9.50643 19.7995 10.0051 19.2545 10.3033 18.617L 10.3033 15.347C 10.2725 15.347 10 15.3676 9.48586 15.4087C 8.98201 15.4499 8.70951 15.4704 8.66838 15.4704C 7.03342 15.6144 5.83548 15.9229 5.07455 16.3959C 4.31362 16.8689 3.93316 17.6298 3.93316 18.6787C 3.93316 19.3985 4.14396 19.9537 4.56555 20.3445C 4.98715 20.7249 5.58869 20.9152 6.37018 20.9152Z"/>
<path id="path1_fill" d="M 25.1877 23.6915C 24.036 23.6915 23.0746 23.5578 22.3033 23.2905C 21.5424 23.0129 20.946 22.581 20.5141 21.9949C 20.0823 21.4087 19.7738 20.7198 19.5887 19.928C 19.4139 19.126 19.3265 18.1388 19.3265 16.9666L 19.3265 8.96144L 16.5501 8.96144L 16.7044 6.77121L 19.6041 6.509L 20.8997 1.9126L 23.3676 1.89717L 23.3676 6.509L 27.5784 6.509L 27.5784 8.96144L 23.3676 8.96144L 23.3676 17.0437C 23.3676 18.329 23.5527 19.2442 23.9229 19.7892C 24.2931 20.3342 24.9769 20.6067 25.9743 20.6067C 26.5604 20.6067 27.1877 20.5553 27.856 20.4524L 27.964 23.3522C 27.9434 23.3522 27.8149 23.3779 27.5784 23.4293C 27.3522 23.4704 27.1311 23.5064 26.9152 23.5373C 26.7095 23.5784 26.4422 23.6144 26.1131 23.6452C 25.7841 23.6761 25.4756 23.6915 25.1877 23.6915Z"/>
<path id="path2_fill" d="M 35.2596 23.7841C 33.6864 23.7841 32.4113 23.3522 31.4344 22.4884C 30.4679 21.6144 29.9846 20.3599 29.9846 18.7249C 29.9846 16.9666 30.5604 15.6658 31.7121 14.8226C 32.8638 13.9692 34.6015 13.4293 36.9254 13.2031C 37.2442 13.162 37.5887 13.1208 37.9589 13.0797C 38.329 13.0386 38.7455 12.9974 39.2082 12.9563C 39.671 12.9152 40.036 12.8792 40.3033 12.8483L 40.3033 11.9537C 40.3033 10.9254 40.0668 10.1799 39.5938 9.71722C 39.1208 9.24422 38.401 9.00771 37.4344 9.00771C 36.0566 9.00771 34.3548 9.39332 32.329 10.1645C 32.3188 10.1337 32.1491 9.66581 31.8201 8.76093C 31.491 7.85604 31.3213 7.39332 31.3111 7.37275C 33.3059 6.51928 35.4653 6.09254 37.7892 6.09254C 40.072 6.09254 41.7326 6.59126 42.7712 7.58869C 43.8098 8.57584 44.329 10.1799 44.329 12.401L 44.329 23.4602L 41.3368 23.4602C 41.3265 23.419 41.2134 23.0746 40.9974 22.4267C 40.7815 21.7789 40.6735 21.4344 40.6735 21.3933C 39.8303 22.2159 39.0026 22.8226 38.1902 23.2134C 37.3882 23.5938 36.4113 23.7841 35.2596 23.7841ZM 36.3548 20.9152C 37.2905 20.9152 38.1028 20.6941 38.7918 20.2519C 39.491 19.7995 39.9897 19.2545 40.2879 18.617L 40.2879 15.347C 40.2571 15.347 39.9846 15.3676 39.4704 15.4087C 38.9666 15.4499 38.6941 15.4704 38.653 15.4704C 37.018 15.6144 35.8201 15.9229 35.0591 16.3959C 34.2982 16.8689 33.9177 17.6298 33.9177 18.6787C 33.9177 19.3985 34.1285 19.9537 34.5501 20.3445C 34.9717 20.7249 35.5733 20.9152 36.3548 20.9152Z"/>
<path id="path3_fill" d="M 55.8201 23.7841C 53.2288 23.7841 51.2082 23.0129 49.7584 21.4704C 48.3188 19.928 47.599 17.7224 47.599 14.8535C 47.599 12.0771 48.3548 9.92288 49.8663 8.39075C 51.3882 6.85861 53.3882 6.09254 55.8663 6.09254C 57.8509 6.09254 59.527 6.51928 60.8946 7.37275L 59.9383 10.2571C 58.5398 9.52699 57.2391 9.16195 56.036 9.16195C 54.6684 9.16195 53.5887 9.65039 52.7969 10.6272C 52.0154 11.6041 51.6247 13.0283 51.6247 14.8997C 51.6247 16.7918 52.0103 18.2314 52.7815 19.2185C 53.563 20.2057 54.6632 20.6992 56.0823 20.6992C 57.563 20.6992 58.9871 20.2622 60.3548 19.3882L 60.7404 22.4576C 60.0308 22.9306 59.2956 23.2699 58.5347 23.4756C 57.7738 23.6812 56.8689 23.7841 55.8201 23.7841Z"/>
<path id="path4_fill" d="M 68.4216 23.7841C 66.8483 23.7841 65.5733 23.3522 64.5964 22.4884C 63.6298 21.6144 63.1465 20.3599 63.1465 18.7249C 63.1465 16.9666 63.7224 15.6658 64.874 14.8226C 66.0257 13.9692 67.7635 13.4293 70.0874 13.2031C 70.4062 13.162 70.7506 13.1208 71.1208 13.0797C 71.491 13.0386 71.9075 12.9974 72.3702 12.9563C 72.8329 12.9152 73.1979 12.8792 73.4653 12.8483L 73.4653 11.9537C 73.4653 10.9254 73.2288 10.1799 72.7558 9.71722C 72.2828 9.24422 71.563 9.00771 70.5964 9.00771C 69.2185 9.00771 67.5167 9.39332 65.491 10.1645C 65.4807 10.1337 65.3111 9.66581 64.982 8.76093C 64.653 7.85604 64.4833 7.39332 64.473 7.37275C 66.4679 6.51928 68.6272 6.09254 70.9512 6.09254C 73.2339 6.09254 74.8946 6.59126 75.9332 7.58869C 76.9717 8.57584 77.491 10.1799 77.491 12.401L 77.491 23.4602L 74.4987 23.4602C 74.4884 23.419 74.3753 23.0746 74.1594 22.4267C 73.9434 21.7789 73.8355 21.4344 73.8355 21.3933C 72.9923 22.2159 72.1645 22.8226 71.3522 23.2134C 70.5501 23.5938 69.5733 23.7841 68.4216 23.7841ZM 69.5167 20.9152C 70.4524 20.9152 71.2648 20.6941 71.9537 20.2519C 72.653 19.7995 73.1517 19.2545 73.4499 18.617L 73.4499 15.347C 73.419 15.347 73.1465 15.3676 72.6324 15.4087C 72.1285 15.4499 71.856 15.4704 71.8149 15.4704C 70.1799 15.6144 68.982 15.9229 68.2211 16.3959C 67.4602 16.8689 67.0797 17.6298 67.0797 18.6787C 67.0797 19.3985 67.2905 19.9537 67.7121 20.3445C 68.1337 20.7249 68.7352 20.9152 69.5167 20.9152Z"/>
<path id="path5_fill" d="M 87.8715 23.7841C 85.6607 23.7841 83.9229 22.9717 82.6581 21.347C 81.3933 19.7224 80.7609 17.5527 80.7609 14.838C 80.7609 12.2057 81.3882 10.0925 82.6427 8.49871C 83.9075 6.8946 85.6452 6.09254 87.856 6.09254C 90.2622 6.09254 91.964 6.94602 92.9614 8.65296C 92.8586 7.64524 92.8072 6.67352 92.8072 5.73779L 92.8072 0.262211L 96.8483 0L 96.8483 23.4602L 93.347 23.4602L 92.8997 21.1465C 92.7249 21.4242 92.5604 21.6658 92.4062 21.8715C 92.2622 22.0668 92.0463 22.2982 91.7584 22.5656C 91.4704 22.8226 91.1568 23.0334 90.8175 23.1979C 90.4884 23.3522 90.0668 23.4859 89.5527 23.599C 89.0488 23.7224 88.4884 23.7841 87.8715 23.7841ZM 88.8278 20.7147C 91.5424 20.7147 92.9203 18.8689 92.9614 15.1774C 92.9614 13.09 92.6118 11.5681 91.9126 10.6118C 91.2134 9.65553 90.1697 9.17738 88.7815 9.17738C 87.5681 9.17738 86.5964 9.66581 85.8663 10.6427C 85.1465 11.6093 84.7866 13.0386 84.7866 14.9306C 84.7866 16.8123 85.1465 18.2468 85.8663 19.2339C 86.5964 20.2211 87.5835 20.7147 88.8278 20.7147Z"/>
<path id="path6_fill" d="M 108.355 20.7147C 109.722 20.7147 110.751 20.2159 111.44 19.2185C 112.129 18.2211 112.473 16.7918 112.473 14.9306C 112.473 13.0488 112.129 11.6144 111.44 10.6272C 110.751 9.6401 109.712 9.14653 108.324 9.14653C 106.956 9.14653 105.923 9.64524 105.224 10.6427C 104.535 11.6298 104.19 13.0643 104.19 14.946C 104.19 16.7969 104.54 18.2211 105.239 19.2185C 105.938 20.2159 106.977 20.7147 108.355 20.7147ZM 108.247 23.7841C 105.738 23.7841 103.763 22.9717 102.324 21.347C 100.884 19.7224 100.165 17.5835 100.165 14.9306C 100.165 12.1954 100.884 10.0411 102.324 8.46787C 103.763 6.88432 105.794 6.09254 108.416 6.09254C 110.946 6.09254 112.925 6.89974 114.355 8.51414C 115.794 10.1183 116.514 12.2571 116.514 14.9306C 116.514 17.635 115.789 19.7892 114.339 21.3933C 112.889 22.9871 110.859 23.7841 108.247 23.7841Z"/>
<path id="path7_fill" d="M 0.0308483 23.6298C 0.0102828 13.7069 0 8.07198 0 6.72494L 1.57326 6.72494L 1.69666 10.0566C 2.30334 9.04884 3.07455 8.22622 4.01028 7.58869C 4.94602 6.95116 5.92288 6.63239 6.94087 6.63239C 7.36247 6.63239 7.81491 6.66838 8.2982 6.74036L 8.15938 8.32905C 7.7892 8.26735 7.39846 8.2365 6.98715 8.2365C 5.55784 8.2365 4.35476 8.80206 3.37789 9.93316C 2.41131 11.054 1.92802 12.3856 1.92802 13.928L 1.92802 23.6298L 0.0308483 23.6298Z"/>
<path id="path8_fill" d="M 11.2442 23.6298L 11.2442 6.72494L 13.1722 6.72494L 13.1722 23.6298L 11.2442 23.6298ZM 11.2442 3.26992L 11.2442 0.678663L 13.1568 0.678663L 13.1568 3.26992L 11.2442 3.26992Z"/>
<path id="path9_fill" d="M 25.2031 24C 22.91 24 21.0848 23.0591 19.7275 21.1774L 19.527 23.6298L 17.9229 23.6298L 17.9229 0.169666L 19.8201 0L 19.8201 5.69152C 19.8201 7.42931 19.8046 8.62725 19.7738 9.28535C 20.401 8.31877 21.1979 7.59897 22.1645 7.12596C 23.1414 6.65296 24.1542 6.41645 25.2031 6.41645C 27.4859 6.41645 29.2648 7.23393 30.5398 8.86889C 31.8252 10.4936 32.4679 12.5913 32.4679 15.162C 32.4679 16.8895 32.2005 18.4113 31.6658 19.7275C 31.1414 21.0334 30.3239 22.072 29.2134 22.8432C 28.1028 23.6144 26.7661 24 25.2031 24ZM 25.2956 22.473C 26.2416 22.473 27.0591 22.2725 27.7481 21.8715C 28.4473 21.4602 28.982 20.9049 29.3522 20.2057C 29.7326 19.4961 30.0051 18.7352 30.1697 17.9229C 30.3445 17.1003 30.4319 16.2108 30.4319 15.2545C 30.4319 14.4936 30.3805 13.7789 30.2776 13.1105C 30.1851 12.4319 30.0103 11.7738 29.7532 11.1362C 29.5064 10.4884 29.1928 9.9383 28.8123 9.48586C 28.4422 9.03342 27.9537 8.66838 27.347 8.39075C 26.7506 8.11311 26.0668 7.97429 25.2956 7.97429C 23.5167 7.97429 22.1542 8.61697 21.2082 9.90231C 20.2725 11.1774 19.8098 12.9923 19.8201 15.347C 19.8201 16.4267 19.9177 17.3933 20.1131 18.2468C 20.3188 19.09 20.6324 19.8355 21.054 20.4833C 21.4859 21.1208 22.0566 21.6144 22.7661 21.964C 23.4756 22.3033 24.3188 22.473 25.2956 22.473Z"/>
<path id="path10_fill" d="M 43.0951 24C 40.7609 24 38.9049 23.2185 37.527 21.6555C 36.1594 20.0925 35.4756 17.9743 35.4756 15.3008C 35.4756 12.7198 36.144 10.6067 37.4807 8.96144C 38.8278 7.3162 40.5656 6.46787 42.6941 6.41645C 44.6787 6.41645 46.2725 7.12596 47.4756 8.54499C 48.6787 9.96401 49.2802 11.8663 49.2802 14.2519C 49.2802 14.3445 49.2751 14.5347 49.2648 14.8226C 49.2648 15.1003 49.2648 15.2956 49.2648 15.4087L 37.4961 15.4087C 37.5167 17.5784 38.0411 19.3008 39.0694 20.5758C 40.0977 21.8406 41.455 22.473 43.1414 22.473C 44.2416 22.473 45.1979 22.3445 46.0103 22.0874C 46.8226 21.8303 47.671 21.4653 48.5553 20.9923L 48.8792 22.4267C 47.1722 23.4756 45.2442 24 43.0951 24ZM 37.5733 13.8663L 47.1979 13.8663C 47.1979 11.9846 46.7918 10.545 45.9794 9.54756C 45.1671 8.53985 44.0514 8.03599 42.6324 8.03599C 41.1928 8.03599 40.0308 8.57069 39.1465 9.6401C 38.2622 10.7095 37.7378 12.1183 37.5733 13.8663Z"/>
<path id="path11_fill" d="M 53.3213 23.6298L 53.3213 6.72494L 55.2494 6.72494L 55.2494 23.6298L 53.3213 23.6298ZM 53.3213 3.26992L 53.3213 0.678663L 55.2339 0.678663L 55.2339 3.26992L 53.3213 3.26992Z"/>
<path id="path12_fill" d="M 60.0308 23.6298C 60.0103 13.7069 60 8.07198 60 6.72494L 61.5733 6.72494L 61.6967 10.0566C 62.3033 9.04884 63.0745 8.22622 64.0103 7.58869C 64.946 6.95116 65.9229 6.63239 66.9409 6.63239C 67.3625 6.63239 67.8149 6.66838 68.2982 6.74036L 68.1594 8.32905C 67.7892 8.26735 67.3985 8.2365 66.9871 8.2365C 65.5578 8.2365 64.3548 8.80206 63.3779 9.93316C 62.4113 11.054 61.928 12.3856 61.928 13.928L 61.928 23.6298L 60.0308 23.6298Z"/>
<path id="path13_fill" d="M 72.108 4.84319C 72.1388 3.74293 72.365 2.99229 72.7866 2.59126C 73.2185 2.17995 73.8098 1.97429 74.5604 1.97429C 75.0334 1.97429 75.7686 2.22108 76.7661 2.71465C 77.7635 3.20823 78.3856 3.45501 78.6324 3.45501C 78.7969 3.45501 78.9357 3.40874 79.0488 3.3162C 79.162 3.22365 79.2494 3.08483 79.3111 2.89974C 79.3728 2.71465 79.4139 2.56555 79.4344 2.45244C 79.455 2.33933 79.4756 2.17995 79.4961 1.97429L 80.8997 1.97429C 80.8586 3.01285 80.653 3.75321 80.2828 4.19537C 79.9229 4.62725 79.4036 4.84319 78.7249 4.84319C 78.2725 4.84319 77.5013 4.58098 76.4113 4.05656C 75.3316 3.52185 74.6735 3.2545 74.437 3.2545C 73.892 3.2545 73.5784 3.78406 73.4961 4.84319L 72.108 4.84319ZM 75.3779 24C 73.7841 24 72.509 23.599 71.5527 22.7969C 70.5964 21.9949 70.1183 20.8483 70.1183 19.3573C 70.1183 18.473 70.3085 17.7069 70.6889 17.0591C 71.0694 16.401 71.6195 15.8715 72.3393 15.4704C 73.0694 15.0591 73.8972 14.7404 74.8226 14.5141C 75.7584 14.2879 76.8432 14.1285 78.0771 14.036C 79.3933 13.9537 80.3702 13.8869 81.0077 13.8355L 81.0077 11.9537C 81.0077 10.6581 80.7095 9.68638 80.1131 9.03856C 79.527 8.38046 78.581 8.05141 77.2751 8.05141C 75.4859 8.05141 73.8149 8.47815 72.2622 9.33162C 72.2211 9.22879 72.1234 9.00771 71.9692 8.66838C 71.8252 8.31877 71.7224 8.05141 71.6607 7.86632C 72.2982 7.45501 73.1311 7.11054 74.1594 6.8329C 75.1877 6.55527 76.1954 6.41645 77.1825 6.41645C 79.2082 6.41645 80.6632 6.85347 81.5476 7.72751C 82.4319 8.59126 82.874 10.1285 82.874 12.3393L 82.874 23.6298L 81.3779 23.6298C 81.3265 23.3933 81.2494 22.9254 81.1465 22.2262C 81.054 21.527 81.0077 21.1671 81.0077 21.1465C 79.6812 23.0488 77.8046 24 75.3779 24ZM 75.4396 22.473C 76.7558 22.473 77.9229 22.0874 78.9409 21.3162C 79.9692 20.5347 80.6427 19.455 80.9614 18.0771L 80.9614 15.1928C 79.4807 15.3162 78.7352 15.3779 78.7249 15.3779C 76.2159 15.6041 74.473 16.0154 73.4961 16.6118C 72.5193 17.2082 72.0308 18.1337 72.0308 19.3882C 72.0308 20.4165 72.3393 21.1877 72.9563 21.7018C 73.5835 22.2159 74.4113 22.473 75.4396 22.473Z"/>
<path id="path14_fill" d="M 94.4884 22.473C 95.7224 22.473 96.7609 22.1491 97.6041 21.5013C 98.4576 20.8432 99.0745 19.9794 99.455 18.91C 99.8458 17.8406 100.041 16.6118 100.041 15.2237C 100.041 13.0437 99.5784 11.2905 98.653 9.96401C 97.7275 8.63753 96.3188 7.97429 94.4267 7.97429C 93.1928 7.97429 92.1388 8.30848 91.2648 8.97686C 90.401 9.63496 89.7686 10.5039 89.3676 11.5835C 88.9666 12.653 88.7661 13.8817 88.7661 15.2699C 88.7661 17.3779 89.2545 19.1054 90.2314 20.4524C 91.2185 21.7995 92.6375 22.473 94.4884 22.473ZM 94.3496 24C 92.8175 24 91.4653 23.6144 90.2931 22.8432C 89.1311 22.072 88.2416 21.0283 87.6247 19.7121C 87.018 18.3856 86.7147 16.8895 86.7147 15.2237C 86.7147 13.9692 86.8895 12.8072 87.2391 11.7378C 87.599 10.6581 88.108 9.72751 88.7661 8.94602C 89.4242 8.15424 90.2416 7.53728 91.2185 7.09512C 92.1954 6.64267 93.2802 6.41645 94.473 6.41645C 96.0566 6.41645 97.4293 6.8072 98.5913 7.58869C 99.7532 8.3599 100.622 9.4036 101.198 10.7198C 101.784 12.0257 102.077 13.5167 102.077 15.1928C 102.077 16.8792 101.779 18.3805 101.183 19.6967C 100.586 21.0129 99.6967 22.0617 98.5141 22.8432C 97.3316 23.6144 95.9434 24 94.3496 24Z"/>
</defs>
</svg>
