<svg width="317" height="35" viewBox="0 0 317 35" version="1.1" xmlns="http://www.w3.org/2000/svg" xmlns:xlink="http://www.w3.org/1999/xlink">
<title>newcommerce-h</title>
<desc>Created using Figma</desc>
<g id="Canvas" transform="translate(-428 476)">
<clipPath id="clip-0" clip-rule="evenodd">
<path d="M 428 -476L 745 -476L 745 -441L 428 -441L 428 -476Z" fill="#FFFFFF"/>
</clipPath>
<g id="newcommerce-h" clip-path="url(#clip-0)">
<g id="Group">
<g id="Commerce">
<use xlink:href="#path0_fill" transform="translate(522.467 -476)" fill="#543C95"/>
<use xlink:href="#path1_fill" transform="translate(522.467 -476)" fill="#543C95"/>
<use xlink:href="#path2_fill" transform="translate(522.467 -476)" fill="#543C95"/>
<use xlink:href="#path3_fill" transform="translate(522.467 -476)" fill="#543C95"/>
<use xlink:href="#path4_fill" transform="translate(522.467 -476)" fill="#543C95"/>
<use xlink:href="#path5_fill" transform="translate(522.467 -476)" fill="#543C95"/>
<use xlink:href="#path6_fill" transform="translate(522.467 -476)" fill="#543C95"/>
<use xlink:href="#path7_fill" transform="translate(522.467 -476)" fill="#543C95"/>
</g>
<g id="new">
<use xlink:href="#path8_fill" transform="translate(428 -467.17)" fill="#7957D5"/>
<use xlink:href="#path9_fill" transform="translate(428 -467.17)" fill="#7957D5"/>
<use xlink:href="#path10_fill" transform="translate(428 -467.17)" fill="#7957D5"/>
</g>
</g>
</g>
</g>
<defs>
<path id="path0_fill" d="M 15.9214 34.9772C 13.3098 34.9772 10.9808 34.5373 8.93431 33.6573C 6.88782 32.7622 5.2155 31.5258 3.91735 29.948C 2.63448 28.3702 1.65705 26.5193 0.985065 24.3953C 0.328355 22.2713 0 19.9426 0 17.409C 0 14.041 0.618529 11.0598 1.85559 8.46554C 3.10792 5.85609 4.97114 3.7928 7.44526 2.27568C 9.91937 0.758561 12.844 0 16.2192 0C 19.9304 0 23.0918 0.773732 25.7033 2.3212L 24.3059 4.57412C 21.9234 3.14803 19.2355 2.43498 16.2421 2.43498C 14.1498 2.43498 12.2713 2.82943 10.6066 3.61834C 8.94195 4.39207 7.57507 5.46922 6.50601 6.8498C 5.45222 8.23039 4.64279 9.83095 4.07771 11.6515C 3.52791 13.472 3.25301 15.4443 3.25301 17.5683C 3.25301 19.6467 3.505 21.5735 4.00899 23.3485C 4.52824 25.1084 5.2995 26.6862 6.32274 28.0819C 7.36126 29.4625 8.73577 30.5548 10.4463 31.3589C 12.1568 32.1478 14.1269 32.5423 16.3567 32.5423C 18.7544 32.5423 21.4271 31.8823 24.3746 30.5624L 24.9702 32.9064C 22.7405 34.287 19.7242 34.9772 15.9214 34.9772Z"/>
<path id="path1_fill" d="M 40.5251 32.7471C 42.3578 32.7471 43.9003 32.2692 45.1526 31.3134C 46.4202 30.3424 47.3366 29.0681 47.9016 27.4902C 48.482 25.9124 48.7722 24.0995 48.7722 22.0514C 48.7722 18.8351 48.0849 16.2484 46.7104 14.2913C 45.3359 12.3342 43.2436 11.3557 40.4335 11.3557C 38.6008 11.3557 37.0354 11.8487 35.7372 12.8349C 34.4544 13.8058 33.5151 15.0878 32.9195 16.6808C 32.3239 18.2586 32.0261 20.0715 32.0261 22.1196C 32.0261 25.2297 32.7515 27.7785 34.2024 29.7659C 35.6685 31.7534 37.7761 32.7471 40.5251 32.7471ZM 40.3189 35C 38.0434 35 36.035 34.4311 34.294 33.2932C 32.5682 32.1554 31.2472 30.6155 30.3308 28.6736C 29.4298 26.7165 28.9792 24.5091 28.9792 22.0514C 28.9792 20.2005 29.2389 18.4861 29.7581 16.9083C 30.2927 15.3153 31.0486 13.9423 32.0261 12.7893C 33.0035 11.6212 34.2176 10.7109 35.6685 10.0585C 37.1194 9.39098 38.7306 9.05722 40.5022 9.05722C 42.8541 9.05722 44.893 9.63372 46.6188 10.7867C 48.3445 11.9246 49.6351 13.4645 50.4903 15.4064C 51.3608 17.3331 51.7961 19.5329 51.7961 22.0059C 51.7961 24.4939 51.3532 26.7089 50.4674 28.6508C 49.5816 30.5928 48.2605 32.1402 46.5042 33.2932C 44.7479 34.4311 42.6861 35 40.3189 35Z"/>
<path id="path2_fill" d="M 57.4545 34.4538C 57.4087 19.3736 57.3858 11.0598 57.3858 9.51235L 59.8599 9.51235L 60.2264 13.3355C 60.9595 12.0915 62.0515 11.0674 63.5023 10.2633C 64.9685 9.45925 66.5186 9.05722 68.1527 9.05722C 72.1694 9.05722 74.6893 10.6274 75.7125 13.7679C 77.4994 10.6274 80.3172 9.05722 84.1658 9.05722C 86.9148 9.05722 88.9307 9.83853 90.2136 11.4012C 91.5118 12.9486 92.1608 15.2622 92.1608 18.342L 92.1608 34.4538L 89.3202 34.4538L 89.3202 22.2562C 89.3202 21.1032 89.3049 20.1398 89.2744 19.3661C 89.2438 18.5923 89.1675 17.7503 89.0453 16.8401C 88.9384 15.9298 88.7627 15.1864 88.5184 14.6099C 88.2893 14.0334 87.9839 13.4872 87.6021 12.9714C 87.2202 12.4556 86.7315 12.0763 86.1359 11.8336C 85.5403 11.5908 84.8378 11.4694 84.0283 11.4694C 82.104 11.4694 80.4699 12.0384 79.1259 13.1762C 77.7972 14.2989 76.8732 15.8843 76.354 17.9324C 76.3845 19.4798 76.4227 20.6784 76.4685 21.528L 76.4685 34.4538L 73.6508 34.4538L 73.6508 21.7555C 73.6508 20.466 73.6126 19.3509 73.5362 18.4103C 73.4599 17.4545 73.3072 16.5215 73.0781 15.6112C 72.849 14.7009 72.5359 13.9575 72.1388 13.381C 71.757 12.8045 71.2378 12.3418 70.581 11.9928C 69.9396 11.6439 69.1684 11.4694 68.2673 11.4694C 66.1903 11.4694 64.4492 12.0232 63.0442 13.1307C 61.6544 14.223 60.7533 15.7174 60.341 17.6138C 60.3104 18.2358 60.2951 19.1233 60.2951 20.2763L 60.2951 34.4538L 57.4545 34.4538Z"/>
<path id="path3_fill" d="M 98.8272 34.4538C 98.7814 19.3736 98.7585 11.0598 98.7585 9.51235L 101.233 9.51235L 101.599 13.3355C 102.332 12.0915 103.424 11.0674 104.875 10.2633C 106.341 9.45925 107.891 9.05722 109.525 9.05722C 113.542 9.05722 116.062 10.6274 117.085 13.7679C 118.872 10.6274 121.69 9.05722 125.539 9.05722C 128.288 9.05722 130.303 9.83853 131.586 11.4012C 132.884 12.9486 133.534 15.2622 133.534 18.342L 133.534 34.4538L 130.693 34.4538L 130.693 22.2562C 130.693 21.1032 130.678 20.1398 130.647 19.3661C 130.617 18.5923 130.54 17.7503 130.418 16.8401C 130.311 15.9298 130.135 15.1864 129.891 14.6099C 129.662 14.0334 129.357 13.4872 128.975 12.9714C 128.593 12.4556 128.104 12.0763 127.509 11.8336C 126.913 11.5908 126.21 11.4694 125.401 11.4694C 123.477 11.4694 121.843 12.0384 120.499 13.1762C 119.17 14.2989 118.246 15.8843 117.727 17.9324C 117.757 19.4798 117.795 20.6784 117.841 21.528L 117.841 34.4538L 115.024 34.4538L 115.024 21.7555C 115.024 20.466 114.985 19.3509 114.909 18.4103C 114.833 17.4545 114.68 16.5215 114.451 15.6112C 114.222 14.7009 113.909 13.9575 113.512 13.381C 113.13 12.8045 112.61 12.3418 111.954 11.9928C 111.312 11.6439 110.541 11.4694 109.64 11.4694C 107.563 11.4694 105.822 12.0232 104.417 13.1307C 103.027 14.223 102.126 15.7174 101.714 17.6138C 101.683 18.2358 101.668 19.1233 101.668 20.2763L 101.668 34.4538L 98.8272 34.4538Z"/>
<path id="path4_fill" d="M 150.303 35C 146.836 35 144.079 33.847 142.033 31.541C 140.001 29.2349 138.986 26.1097 138.986 22.1651C 138.986 18.3572 139.978 15.2395 141.964 12.8121C 143.965 10.3847 146.546 9.13307 149.707 9.05722C 152.655 9.05722 155.022 10.104 156.809 12.1977C 158.595 14.2913 159.489 17.098 159.489 20.6177C 159.489 20.7542 159.481 21.0349 159.466 21.4597C 159.466 21.8693 159.466 22.1576 159.466 22.3244L 141.987 22.3244C 142.017 25.5256 142.796 28.0668 144.323 29.948C 145.851 31.814 147.867 32.7471 150.371 32.7471C 152.005 32.7471 153.426 32.5574 154.632 32.1782C 155.839 31.7989 157.099 31.2603 158.412 30.5624L 158.893 32.6788C 156.358 34.2263 153.494 35 150.303 35ZM 142.101 20.0488L 156.396 20.0488C 156.396 17.2724 155.793 15.1485 154.586 13.6769C 153.38 12.1901 151.723 11.4467 149.615 11.4467C 147.477 11.4467 145.751 12.2356 144.438 13.8134C 143.125 15.3912 142.346 17.4697 142.101 20.0488Z"/>
<path id="path5_fill" d="M 165.239 34.4538C 165.208 19.8136 165.193 11.4998 165.193 9.51235L 167.53 9.51235L 167.713 14.4278C 168.614 12.941 169.76 11.7274 171.149 10.7867C 172.539 9.84612 173.99 9.37581 175.502 9.37581C 176.128 9.37581 176.8 9.42891 177.518 9.53511L 177.312 11.8791C 176.762 11.788 176.182 11.7425 175.571 11.7425C 173.448 11.7425 171.661 12.5769 170.21 14.2458C 168.774 15.8994 168.057 17.8641 168.057 20.1398L 168.057 34.4538L 165.239 34.4538Z"/>
<path id="path6_fill" d="M 191.607 35C 189.178 35 187.071 34.4083 185.284 33.225C 183.497 32.0416 182.168 30.5017 181.298 28.6053C 180.427 26.6938 179.992 24.5698 179.992 22.2334C 179.992 20.4432 180.252 18.7592 180.771 17.1814C 181.29 15.6036 182.023 14.2078 182.97 12.9941C 183.932 11.7805 185.162 10.8247 186.658 10.1268C 188.17 9.41374 189.85 9.05722 191.698 9.05722C 192.905 9.05722 194.104 9.21651 195.295 9.53511C 196.501 9.85371 197.395 10.233 197.975 10.673L 197.082 12.7893C 195.509 11.9094 193.645 11.4694 191.492 11.4694C 188.88 11.4694 186.811 12.4556 185.284 14.4278C 183.757 16.3849 182.993 18.9868 182.993 22.2334C 182.993 25.3435 183.749 27.8619 185.261 29.7887C 186.788 31.7003 188.865 32.656 191.492 32.656C 193.325 32.656 195.295 32.2009 197.402 31.2906L 197.838 33.316C 197.12 33.847 196.188 34.2566 195.043 34.5449C 193.897 34.8483 192.752 35 191.607 35Z"/>
<path id="path7_fill" d="M 213.347 35C 209.88 35 207.123 33.847 205.077 31.541C 203.046 29.2349 202.03 26.1097 202.03 22.1651C 202.03 18.3572 203.023 15.2395 205.008 12.8121C 207.009 10.3847 209.59 9.13307 212.751 9.05722C 215.699 9.05722 218.066 10.104 219.853 12.1977C 221.64 14.2913 222.533 17.098 222.533 20.6177C 222.533 20.7542 222.525 21.0349 222.51 21.4597C 222.51 21.8693 222.51 22.1576 222.51 22.3244L 205.031 22.3244C 205.061 25.5256 205.84 28.0668 207.368 29.948C 208.895 31.814 210.911 32.7471 213.415 32.7471C 215.05 32.7471 216.47 32.5574 217.676 32.1782C 218.883 31.7989 220.143 31.2603 221.456 30.5624L 221.937 32.6788C 219.402 34.2263 216.539 35 213.347 35ZM 205.145 20.0488L 219.44 20.0488C 219.44 17.2724 218.837 15.1485 217.631 13.6769C 216.424 12.1901 214.767 11.4467 212.659 11.4467C 210.521 11.4467 208.796 12.2356 207.482 13.8134C 206.169 15.3912 205.39 17.4697 205.145 20.0488Z"/>
<path id="path8_fill" d="M 0 25.6242L 0 0.614434L 4.83369 0.614434L 5.49804 3.77763C 8.06379 1.25921 10.9121 0 14.0429 0C 16.9752 0 19.1668 0.842003 20.6176 2.52601C 22.0838 4.19484 22.8169 6.62224 22.8169 9.80819L 22.8169 25.6242L 16.7919 25.6242L 16.7919 10.5364C 16.7766 8.51864 16.4483 7.0091 15.8069 6.0078C 15.1654 5.0065 14.0124 4.50585 12.3477 4.50585C 11.0495 4.50585 9.85829 4.83962 8.77395 5.50715C 7.70489 6.15952 6.926 6.98635 6.43728 7.98765C 6.14711 9.171 6.00202 10.9915 6.00202 13.4493L 6.00202 25.6242L 0 25.6242Z"/>
<path id="path9_fill" d="M 40.3648 26.1021C 36.3176 26.1021 33.1639 24.9491 30.9035 22.643C 28.6585 20.3218 27.536 17.1207 27.536 13.0397C 27.536 9.0648 28.5974 5.9016 30.7203 3.55007C 32.8431 1.19853 35.7372 0.0151703 39.4026 0C 42.8694 0 45.5573 1.07716 47.4664 3.23147C 49.3907 5.38578 50.3529 8.24556 50.3529 11.8108C 50.3529 12.0687 50.3452 12.4859 50.3299 13.0624C 50.3299 13.6389 50.3299 14.0637 50.3299 14.3368L 33.5838 14.3368C 33.6449 16.6732 34.2864 18.4861 35.5082 19.7757C 36.7452 21.0501 38.4404 21.6873 40.5938 21.6873C 43.3429 21.6873 45.985 20.9742 48.5202 19.5481L 49.3678 23.7809C 46.8479 25.3283 43.8468 26.1021 40.3648 26.1021ZM 33.6984 10.5819L 44.6945 10.5819C 44.6945 8.54898 44.2287 6.98635 43.297 5.89402C 42.3654 4.80169 41.0749 4.25553 39.4255 4.25553C 37.883 4.25553 36.5772 4.78652 35.5082 5.8485C 34.4544 6.91049 33.8511 8.4883 33.6984 10.5819Z"/>
<path id="path10_fill" d="M 60.1348 25.6242L 52.5063 0.614434L 58.6228 0.614434L 63.4565 18.9564C 63.5634 18.6075 64.4339 15.6264 66.0681 10.013C 67.7022 4.39965 68.6262 1.2668 68.84 0.614434L 75.0024 0.614434C 75.2009 1.25163 76.0791 4.35414 77.6369 9.92198C 79.1946 15.4898 80.0346 18.4785 80.1568 18.8882L 85.1279 0.614434L 91.1529 0.614434L 83.2724 25.6242L 77.2932 25.6242C 77.0947 24.9718 76.1631 21.6721 74.4984 15.725C 72.849 9.77785 71.9556 6.56914 71.8181 6.09883C 71.5127 7.20633 70.5352 10.544 68.8858 16.1118C 67.2517 21.6797 66.3048 24.8505 66.0452 25.6242L 60.1348 25.6242Z"/>
</defs>
</svg>
